<svg height="35pt" viewBox="-58 0 511 512" width="35pt" xmlns="http://www.w3.org/2000/svg"><path d="m395.835938 427.601562h-33.480469c-5.28125-35.375-35.863281-62.601562-72.6875-62.601562h-18.96875v-55.550781c4.15625 1.335937 8.585937 2.0625 13.179687 2.0625 23.8125 0 43.179688-19.367188 43.179688-43.179688v-103.289062c0-39.621094-32.230469-71.851563-71.847656-71.851563h-4.195313c5.546875-9.246094 8.746094-20.050781 8.746094-31.59375 0-33.964844-27.628907-61.597656-61.59375-61.597656-33.964844 0-61.597657 27.632812-61.597657 61.597656 0 11.542969 3.199219 22.347656 8.746094 31.59375h-4.191406c-39.617188 0-71.851562 32.230469-71.851562 71.851563v103.292969c0 23.808593 19.371093 43.179687 43.179687 43.179687 4.597656 0 9.023437-.730469 13.179687-2.066406v55.550781h-18.964843c-36.824219 0-67.40625 27.226562-72.6875 62.601562h-33.480469v30h35.199219c8.433593 31.292969 37.046875 54.398438 70.96875 54.398438h183c33.921875 0 62.53125-23.105469 70.964843-54.398438h35.203126zm-229.265626-366.003906c0-17.421875 14.175782-31.597656 31.597657-31.597656s31.59375 14.175781 31.59375 31.597656-14.171875 31.59375-31.59375 31.59375-31.597657-14.171875-31.597657-31.59375zm-54.117187 219.914063c-7.265625 0-13.179687-5.910157-13.179687-13.179688v-103.289062c0-23.078125 18.773437-41.851563 41.851562-41.851563h114.082031c23.078125 0 41.851563 18.773438 41.851563 41.851563v103.292969c0 7.265624-5.914063 13.179687-13.179688 13.179687s-13.179687-5.914063-13.179687-13.179687v-99.113282h-30v244.613282c0 7.589843-6.175781 13.765624-13.765625 13.765624-7.59375 0-13.765625-6.175781-13.765625-13.765624v-147.503907h-30v147.503907c0 7.589843-6.175781 13.765624-13.769531 13.765624-7.589844 0-13.765626-6.175781-13.765626-13.765624v-244.613282h-30v99.113282c0 7.265624-5.910156 13.175781-13.179687 13.175781zm177.214844 200.488281h-183c-23.988281 0-43.5-19.515625-43.5-43.5s19.511719-43.5 43.5-43.5h18.964843v18.835938c0 24.132812 19.636719 43.765624 43.769532 43.765624 11.003906 0 21.066406-4.089843 28.765625-10.824218 7.699219 6.734375 17.761719 10.824218 28.765625 10.824218 24.132812 0 43.769531-19.632812 43.769531-43.765624v-18.835938h18.964844c23.984375 0 43.5 19.515625 43.5 43.5s-19.515625 43.5-43.5 43.5zm0 0"/></svg>