<svg height="30" viewBox="0 0 56 50" width="30" xmlns="http://www.w3.org/2000/svg"><g id="Page-1" fill="none" fill-rule="evenodd"><g id="008---Sold-Stamp" fill="rgb(0,0,0)" fill-rule="nonzero"><path id="Shape" d="m28 5c6.726504-.0164233 13.0050095 3.37004138 16.686 9h5.757c-3.3995352-6.96357635-9.8425665-11.95152943-17.4357448-13.49809934-7.5931783-1.5465699-15.4738701.52394358-21.3262552 5.60309934-.0640852.05554053-.1345864.10321278-.21.142-2.45783425 2.17463503-4.46742915 4.808237-5.916 7.753h5.759c3.6809905-5.62995862 9.959496-9.0164233 16.686-9z"/><path id="Shape" d="m31.922 44.614c-7.9824025 1.5918189-16.1328896-1.8150277-20.608-8.614h-5.757c4.19532988 8.5680523 12.9029627 13.9998293 22.443 13.9998293s18.2476701-5.431777 22.443-13.9998293h-5.758c-1.8223762 2.763417-4.2990404 5.0339788-7.21 6.61-.4860106.2623353-1.0926647.0810106-1.355-.405s-.0810106-1.0926647.405-1.355c2.217138-1.2019077 4.1586358-2.8538839 5.7-4.85h-28.457c4.1760642 5.4112059 11.0575681 7.9889124 17.761 6.653.5407635-.1068337 1.0660042.2440685 1.1743185.7845374.1083142.5404689-.2411483 1.0666686-.7813185 1.1764626z"/><ellipse id="Oval" cx="22" cy="25" rx="3" ry="5"/><path id="Shape" d="m13.768 14h28.464c-3.4017854-4.41409305-8.6591765-6.9999008-14.232-6.9999008s-10.8302146 2.58580775-14.232 6.9999008z"/><path id="Shape" d="m51 16h-46c-2.76005315.0033061-4.99669388 2.2399468-5 5v8c.00330612 2.7600532 2.23994685 4.9966939 5 5h46c2.7600532-.0033061 4.9966939-2.2399468 5-5v-8c-.0033061-2.7600532-2.2399468-4.9966939-5-5zm-40 8c2.365 0 5 1.643 5 4 0 2.206-2.243 4-5 4s-5-1.794-5-4c0-.5522847.44771525-1 1-1s1 .4477153 1 1c0 1.084 1.374 2 3 2s3-.916 3-2c0-1.009-1.486-2-3-2-2.365 0-5-1.643-5-4 0-2.206 2.243-4 5-4s5 1.794 5 4c0 .5522847-.4477153 1-1 1s-1-.4477153-1-1c0-1.084-1.374-2-3-2s-3 .916-3 2c0 1.009 1.486 2 3 2zm11 8c-2.8 0-5-3.075-5-7s2.2-7 5-7 5 3.075 5 7-2.2 7-5 7zm16 0h-8c-.5522847 0-1-.4477153-1-1v-12c0-.5522847.4477153-1 1-1s1 .4477153 1 1v11h7c.5522847 0 1 .4477153 1 1s-.4477153 1-1 1zm5 0h-1c-1.1045695 0-2-.8954305-2-2v-10c0-1.1045695.8954305-2 2-2h1c3.8659932 0 7 3.1340068 7 7s-3.1340068 7-7 7z"/><path id="Shape" d="m43 20h-1v10h1c2.7614237 0 5-2.2385763 5-5s-2.2385763-5-5-5z"/></g></g></svg>